<svg width="24" height="24" viewBox="0 0 24 24" fill="none" xmlns="http://www.w3.org/2000/svg">
  <path stroke-linejoin="round" stroke-linecap="round" stroke-width="2" stroke="#000000" fill="none" d="M21 21H3C2.45 21 2 20.55 2 20V8C2 7.45 2.45 7 3 7H21C21.55 7 22 7.45 22 8V20C22 20.55 21.55 21 21 21Z"></path>
  <path stroke-linejoin="round" stroke-linecap="round" stroke-width="2" stroke="#000000" d="M16.5 7H7.5V4.5C7.5 3.67 8.17 3 9 3H15C15.83 3 16.5 3.67 16.5 4.5V7Z"></path>
  <path stroke-linejoin="round" stroke-linecap="round" stroke-width="2" stroke="#000000" fill="none" d="M22 12.79C18.08 13.75 14.63 14 12 14C7.97 14 4.56 13.42 2 12.79V8C2 7.45 2.45 7 3 7H21C21.55 7 22 7.45 22 8V12.79Z"></path>
  <path stroke-linecap="round" stroke-width="2" stroke="#000000" d="M12.5 10H11.5V11H12.5V10Z"></path>
  </svg>