<?xml version="1.0" encoding="UTF-8"?>
<svg width="48pt" height="48pt" version="1.1" viewBox="0 0 700 700" xmlns="http://www.w3.org/2000/svg">
    <g>
        <path
            d="m350 70c18.566 0 36.371 7.375 49.496 20.504 13.129 13.125 20.504 30.93 20.504 49.496h23.332c0-33.344-17.789-64.156-46.664-80.828-28.879-16.672-64.457-16.672-93.336 0-28.875 16.672-46.664 47.484-46.664 80.828h23.332c0-18.566 7.375-36.371 20.504-49.496 13.125-13.129 30.93-20.504 49.496-20.504z" />
        <path
            d="m536.67 256.67h-373.34c-6.1875 0-12.121-2.4609-16.496-6.8359-4.3789-4.375-6.8359-10.309-6.8359-16.5h-23.332v233.34c0 12.375 4.9141 24.246 13.668 32.996 8.75 8.7539 20.621 13.668 32.996 13.668h373.34c12.375 0 24.246-4.9141 32.996-13.668 8.7539-8.75 13.668-20.621 13.668-32.996v-233.34h-23.332c0 6.1914-2.457 12.125-6.8359 16.5-4.375 4.375-10.309 6.8359-16.496 6.8359zm23.332 210c0 6.1875-2.457 12.121-6.8359 16.496-4.375 4.3789-10.309 6.8359-16.496 6.8359h-373.34c-6.1875 0-12.121-2.457-16.496-6.8359-4.3789-4.375-6.8359-10.309-6.8359-16.496v-192.97c7.0898 4.1133 15.137 6.2852 23.332 6.3008h373.34c8.1953-0.015625 16.242-2.1875 23.332-6.3008z" />
        <path
            d="m536.67 140h-373.34c-12.375 0-24.246 4.918-32.996 13.668-8.7539 8.7539-13.668 20.621-13.668 33v23.332h23.332v-23.332c0-6.1914 2.457-12.125 6.8359-16.5 4.375-4.375 10.309-6.8359 16.496-6.8359h373.34c6.1875 0 12.121 2.4609 16.496 6.8359 4.3789 4.375 6.8359 10.309 6.8359 16.5v23.332h23.332v-23.332c0-12.379-4.9141-24.246-13.668-33-8.75-8.75-20.621-13.668-32.996-13.668z" />
        <path d="m116.67 210h23.332v23.332h-23.332z" />
        <path d="m560 210h23.332v23.332h-23.332z" />
        <path
            d="m315 315c0-6.4414 6.4414-11.668 11.668-11.668h46.668c6.4414 0 11.668 5.2227 11.668 11.668 0 6.4414-6.4414 11.668-11.668 11.668h-46.668c-6.4414 0-11.668-5.2227-11.668-11.668z" />
    </g>
</svg>